<svg version="1.2" xmlns="http://www.w3.org/2000/svg" xmlns:xlink="http://www.w3.org/1999/xlink" overflow="visible" preserveAspectRatio="none" viewBox="0 0 453 175" width="453" height="175"><g transform="translate(0, 0)"><defs><path id="path-1617231339980571" d="M0 10.000000000000002 C0 4.477152502000001 4.477152502000001 0 10.000000000000002 0 C10.000000000000002 0 443.00000000000085 0 443.00000000000085 0 C448.52284749800083 0 453.00000000000085 4.477152502000001 453.00000000000085 10.000000000000002 C453.00000000000085 10.000000000000002 453.00000000000085 165 453.00000000000085 165 C453.00000000000085 170.522847498 448.52284749800083 175 443.00000000000085 175 C443.00000000000085 175 10.000000000000002 175 10.000000000000002 175 C4.477152502000001 175 0 170.522847498 0 165 C0 165 0 10.000000000000002 0 10.000000000000002 Z" vector-effect="non-scaling-stroke"/></defs><g transform="translate(0, 0)"><path d="M0 10.000000000000002 C0 4.477152502000001 4.477152502000001 0 10.000000000000002 0 C10.000000000000002 0 443.00000000000085 0 443.00000000000085 0 C448.52284749800083 0 453.00000000000085 4.477152502000001 453.00000000000085 10.000000000000002 C453.00000000000085 10.000000000000002 453.00000000000085 165 453.00000000000085 165 C453.00000000000085 170.522847498 448.52284749800083 175 443.00000000000085 175 C443.00000000000085 175 10.000000000000002 175 10.000000000000002 175 C4.477152502000001 175 0 170.522847498 0 165 C0 165 0 10.000000000000002 0 10.000000000000002 Z" style="stroke: rgb(140, 140, 140); stroke-width: 0; stroke-linecap: butt; stroke-linejoin: miter; fill: rgb(252, 252, 252);" vector-effect="non-scaling-stroke"/></g></g></svg>