<svg version="1.2" xmlns="http://www.w3.org/2000/svg" xmlns:xlink="http://www.w3.org/1999/xlink" overflow="visible" preserveAspectRatio="none" viewBox="0 0 24 24" width="37" height="35"><g><path xmlns:default="http://www.w3.org/2000/svg" id="cc-amex" d="M1.7,8.65l0.47,1.12H1.24L1.7,8.65z M6.05,15.25v-0.56h1.48v-0.58H6.06V13.6h1.7l0.73,0.82l-0.77,0.82H6.06  L6.05,15.25z M10.38,13.32v2.26l-1-1.15L10.38,13.32z M12.38,13.94c0.01,0.2-0.14,0.37-0.34,0.38c-0.03,0-0.06,0-0.09-0.01h-0.89  V13.6h0.87c0.18-0.04,0.37,0.07,0.41,0.25c0.01,0.03,0.01,0.06,0.01,0.09l0,0L12.38,13.94z M14.94,14.23h-0.87V13.6h0.85  c0.29,0,0.44,0.1,0.44,0.3c0,0.2-0.15,0.31-0.44,0.34L14.94,14.23z M12.47,9.05c0,0.21-0.15,0.32-0.45,0.32h-0.84V8.75H12  c0.29,0,0.44,0.1,0.44,0.3l0,0H12.47z M17.72,8.64l0.46,1.12h-0.93L17.72,8.64z M7.28,8.16H6.16l-0.8,1.92L4.47,8.16h-1.1v2.68  L2.22,8.16h-1L0,11h0.75L1,10.35h1.41L2.67,11H4V8.77L5,11h0.62l1-2.21V11h0.66V8.16L7.28,8.16z M13.07,13.95  c0.03-0.51-0.36-0.94-0.86-0.97c-0.09-0.01-0.18,0-0.27,0.02H9.78l-0.85,0.93L8.1,13H5.39v2.82h2.66l0.86-0.94l0.83,0.94h1.31v-0.93  h1c0.11,0.01,0.22,0.01,0.33,0l0.27-0.1c0.09-0.04,0.17-0.1,0.23-0.17c0.06-0.09,0.1-0.2,0.12-0.31  C13.04,14.19,13.06,14.07,13.07,13.95L13.07,13.95L13.07,13.95z M8.46,10.4V9.83H10V9.26H8.46V8.75H10V8.16H7.78V11H10v-0.6H8.46z   M24,16.22c-0.32,0.13-0.66,0.2-1,0.18h-1.74v-0.26c-0.27,0.18-0.59,0.27-0.92,0.25h-5.51v-0.9c0.01-0.05-0.02-0.11-0.07-0.12  c-0.01,0-0.03,0-0.05,0h-0.09v1h-1.81v-1.04c-0.3,0.11-0.62,0.15-0.94,0.14h-0.21v0.93h-2.2l-0.54-0.61L8.35,16.4H4.77v-3.94h3.64  l0.52,0.6l0.56-0.6h2.44c0.33-0.04,0.67,0.04,0.95,0.23v-0.23h2.18c0.32-0.02,0.64,0.06,0.91,0.23v-0.23h3.29v0.23  c0.23-0.18,0.52-0.26,0.81-0.23h1.83v0.23c0.25-0.16,0.54-0.24,0.84-0.23H24V5.4c0.01-0.37-0.13-0.74-0.4-1  c-0.26-0.27-0.62-0.42-1-0.41H1.38C1,3.98,0.64,4.13,0.38,4.4c-0.27,0.26-0.41,0.63-0.4,1v4.07l0.84-1.86h1.76l0.23,0.45V7.61h2.06  l0.45,1l0.45-1h6.53c0.27-0.02,0.54,0.06,0.76,0.23V7.61h1.79v0.23C15.21,7.67,15.6,7.59,16,7.61h2.59l0.24,0.46V7.61h1.93L21,8.06  V7.61h1.87v3.94H21l-0.35-0.6v0.6h-2.38L18,10.91h-0.58l-0.26,0.64H16c-0.18-0.01-0.37-0.03-0.55-0.07c-0.2-0.04-0.39-0.1-0.57-0.19  v0.24h-2.9v-0.9c0-0.1-0.03-0.15-0.1-0.15h-0.1v1H6.11v-0.43L5.9,11.54H4.72l-0.2-0.48v0.48H2.25L2,10.91H1.42l-0.26,0.64H0v7.05  c-0.01,0.37,0.13,0.74,0.4,1c0.26,0.27,0.62,0.42,1,0.41h21.22c0.38,0.01,0.74-0.14,1-0.41c0.27-0.26,0.41-0.63,0.4-1v-2.38l0,0H24z   M16.1,13.78c0.03-0.24-0.09-0.48-0.3-0.6C15.55,13.06,15.28,13,15,13h-1.6v2.82h0.68v-1h0.72c0.17-0.02,0.34,0.02,0.48,0.11  c0.1,0.13,0.14,0.29,0.12,0.45v0.47h0.68v-0.57c0.01-0.16-0.01-0.33-0.08-0.48c-0.08-0.13-0.2-0.23-0.35-0.27  c0.15-0.06,0.27-0.16,0.35-0.3c0.08-0.14,0.12-0.29,0.12-0.45l0,0H16.1z M13.22,8.92c0.03-0.24-0.09-0.48-0.3-0.6  c-0.26-0.11-0.53-0.16-0.81-0.15h-1.6V11h0.67v-1h0.73c0.1-0.01,0.21-0.01,0.31,0c0.07,0.02,0.13,0.05,0.18,0.09  c0.05,0.04,0.08,0.1,0.09,0.17c0,0.06,0,0.13,0,0.19c0,0.05,0,0.14,0,0.26c0,0.12,0,0.21,0,0.28h0.68v-0.56  c0.01-0.16-0.02-0.33-0.09-0.48C13,9.82,12.87,9.72,12.72,9.68c0.15-0.06,0.27-0.17,0.35-0.3c0.09-0.14,0.13-0.3,0.13-0.46l0,0  H13.22z M17.16,15.25v-0.56h1.54v-0.58h-1.55V13.6h1.57V13h-2.24v2.82h2.25v-0.56h-1.58L17.16,15.25z M13.6,8.16V11h0.69V8.16H13.6z   M21.5,14.95c0.02-0.21-0.05-0.41-0.18-0.57c-0.12-0.12-0.27-0.2-0.44-0.22c-0.17-0.01-0.34-0.01-0.51,0  c-0.15,0.02-0.29,0.02-0.44,0c-0.1-0.02-0.18-0.1-0.18-0.21c0-0.17,0.12-0.26,0.37-0.26h1.24V13H20c-0.25-0.01-0.49,0.07-0.69,0.22  c-0.18,0.15-0.28,0.38-0.27,0.62c-0.01,0.21,0.05,0.41,0.18,0.57c0.11,0.13,0.27,0.21,0.44,0.23c0.17,0.01,0.35,0.01,0.52,0  c0.14,0,0.29,0.01,0.43,0.05c0.11,0.02,0.19,0.11,0.18,0.22c0,0.17-0.12,0.26-0.35,0.26h-1.31v0.6h1.31  c0.47,0.11,0.93-0.19,1.04-0.66c0.02-0.08,0.02-0.16,0.02-0.24l0,0L21.5,14.95z M24,14.43c-0.15-0.17-0.36-0.27-0.59-0.27  l-0.71-0.05c-0.2,0-0.3-0.08-0.3-0.23c0-0.15,0.12-0.24,0.37-0.26H24V13h-1.35c-0.25-0.01-0.49,0.07-0.69,0.22  c-0.19,0.15-0.29,0.38-0.28,0.62c-0.01,0.18,0.04,0.35,0.13,0.5c0.07,0.12,0.19,0.21,0.32,0.25c0.14,0.04,0.28,0.07,0.42,0.08h0.42  c0.11-0.01,0.22,0.02,0.32,0.06c0.08,0.03,0.13,0.11,0.13,0.2c0,0.17-0.11,0.26-0.34,0.26h-1.3v0.6h1.3  c0.34,0.06,0.69-0.05,0.92-0.31V14.43L24,14.43z M22.28,8.17h-0.69v2l-1.19-2h-1v2.67l-1.16-2.67h-1l-1,2.22H16  c-0.2,0.02-0.39-0.06-0.52-0.21c-0.1-0.18-0.15-0.39-0.14-0.6c-0.01-0.12-0.01-0.23,0-0.35C15.36,9.14,15.4,9.06,15.46,9l0.15-0.14  c0.07-0.04,0.14-0.07,0.22-0.07h0.24h0.59V8.16H16c-0.69-0.08-1.31,0.41-1.39,1.1C14.6,9.37,14.6,9.49,14.62,9.6  c-0.11,0.66,0.33,1.28,0.99,1.4c0.13,0.02,0.26,0.02,0.39,0h0.78L17,10.35h1.4L18.67,11H20V8.87L21.32,11h1V8.17l0,0H22.28z" style="fill: rgb(18, 18, 18);" vector-effect="non-scaling-stroke"/></g></svg>