<svg version="1.2" xmlns="http://www.w3.org/2000/svg" xmlns:xlink="http://www.w3.org/1999/xlink" overflow="visible" preserveAspectRatio="none" viewBox="0 0 520 404" width="520" height="404"><g transform="translate(0, 0)"><defs><path id="path-16171343414722464" d="M0 10.000000000000002 C0 4.477152502000001 4.477152502000001 0 10.000000000000002 0 C10.000000000000002 0 510.0000000000002 0 510.0000000000002 0 C515.5228474980003 0 520.0000000000002 4.477152502000001 520.0000000000002 10.000000000000002 C520.0000000000002 10.000000000000002 520.0000000000002 394.00000000000017 520.0000000000002 394.00000000000017 C520.0000000000002 399.52284749800015 515.5228474980003 404.00000000000017 510.0000000000002 404.00000000000017 C510.0000000000002 404.00000000000017 10.000000000000002 404.00000000000017 10.000000000000002 404.00000000000017 C4.477152502000001 404.00000000000017 0 399.52284749800015 0 394.00000000000017 C0 394.00000000000017 0 10.000000000000002 0 10.000000000000002 Z" vector-effect="non-scaling-stroke"/></defs><g transform="translate(0, 0)"><path d="M0 10.000000000000002 C0 4.477152502000001 4.477152502000001 0 10.000000000000002 0 C10.000000000000002 0 510.0000000000002 0 510.0000000000002 0 C515.5228474980003 0 520.0000000000002 4.477152502000001 520.0000000000002 10.000000000000002 C520.0000000000002 10.000000000000002 520.0000000000002 394.00000000000017 520.0000000000002 394.00000000000017 C520.0000000000002 399.52284749800015 515.5228474980003 404.00000000000017 510.0000000000002 404.00000000000017 C510.0000000000002 404.00000000000017 10.000000000000002 404.00000000000017 10.000000000000002 404.00000000000017 C4.477152502000001 404.00000000000017 0 399.52284749800015 0 394.00000000000017 C0 394.00000000000017 0 10.000000000000002 0 10.000000000000002 Z" style="stroke: rgb(140, 140, 140); stroke-width: 0; stroke-linecap: butt; stroke-linejoin: miter; fill: rgb(252, 252, 252);" vector-effect="non-scaling-stroke"/></g></g></svg>