<svg version="1.2" xmlns="http://www.w3.org/2000/svg" xmlns:xlink="http://www.w3.org/1999/xlink" overflow="visible" preserveAspectRatio="none" viewBox="0 0 440 53" width="440" height="53"><g transform="translate(0, 0)"><defs><path id="path-16172195126986291" d="M0 10.000000000000002 C0 4.477152502000001 4.477152502000001 0 10.000000000000002 0 C10.000000000000002 0 430.0000000000001 0 430.0000000000001 0 C435.5228474980001 0 440.0000000000001 4.477152502000001 440.0000000000001 10.000000000000002 C440.0000000000001 10.000000000000002 440.0000000000001 43.000000000000014 440.0000000000001 43.000000000000014 C440.0000000000001 48.52284749800001 435.5228474980001 53.000000000000014 430.0000000000001 53.000000000000014 C430.0000000000001 53.000000000000014 10.000000000000002 53.000000000000014 10.000000000000002 53.000000000000014 C4.477152502000001 53.000000000000014 0 48.52284749800001 0 43.000000000000014 C0 43.000000000000014 0 10.000000000000002 0 10.000000000000002 Z" vector-effect="non-scaling-stroke"/></defs><g transform="translate(0, 0)"><path d="M0 10.000000000000002 C0 4.477152502000001 4.477152502000001 0 10.000000000000002 0 C10.000000000000002 0 430.0000000000001 0 430.0000000000001 0 C435.5228474980001 0 440.0000000000001 4.477152502000001 440.0000000000001 10.000000000000002 C440.0000000000001 10.000000000000002 440.0000000000001 43.000000000000014 440.0000000000001 43.000000000000014 C440.0000000000001 48.52284749800001 435.5228474980001 53.000000000000014 430.0000000000001 53.000000000000014 C430.0000000000001 53.000000000000014 10.000000000000002 53.000000000000014 10.000000000000002 53.000000000000014 C4.477152502000001 53.000000000000014 0 48.52284749800001 0 43.000000000000014 C0 43.000000000000014 0 10.000000000000002 0 10.000000000000002 Z" style="stroke: rgb(140, 140, 140); stroke-width: 0; stroke-linecap: butt; stroke-linejoin: miter; fill: rgb(252, 252, 252);" vector-effect="non-scaling-stroke"/></g></g></svg>