<svg version="1.2" xmlns="http://www.w3.org/2000/svg" xmlns:xlink="http://www.w3.org/1999/xlink" overflow="visible" preserveAspectRatio="none" viewBox="0 0 580 438" width="580" height="438"><g transform="translate(0, 0)"><defs><path id="path-16171305822442088" d="M0 10.000000000000002 C0 4.477152502000001 4.477152502000001 0 10.000000000000002 0 C10.000000000000002 0 569.9999999999994 0 569.9999999999994 0 C575.5228474979995 0 579.9999999999994 4.477152502000001 579.9999999999994 10.000000000000002 C579.9999999999994 10.000000000000002 579.9999999999994 427.99999999999983 579.9999999999994 427.99999999999983 C579.9999999999994 433.5228474979998 575.5228474979995 437.99999999999983 569.9999999999994 437.99999999999983 C569.9999999999994 437.99999999999983 10.000000000000002 437.99999999999983 10.000000000000002 437.99999999999983 C4.477152502000001 437.99999999999983 0 433.5228474979998 0 427.99999999999983 C0 427.99999999999983 0 10.000000000000002 0 10.000000000000002 Z" vector-effect="non-scaling-stroke"/></defs><g transform="translate(0, 0)"><path d="M0 10.000000000000002 C0 4.477152502000001 4.477152502000001 0 10.000000000000002 0 C10.000000000000002 0 569.9999999999994 0 569.9999999999994 0 C575.5228474979995 0 579.9999999999994 4.477152502000001 579.9999999999994 10.000000000000002 C579.9999999999994 10.000000000000002 579.9999999999994 427.99999999999983 579.9999999999994 427.99999999999983 C579.9999999999994 433.5228474979998 575.5228474979995 437.99999999999983 569.9999999999994 437.99999999999983 C569.9999999999994 437.99999999999983 10.000000000000002 437.99999999999983 10.000000000000002 437.99999999999983 C4.477152502000001 437.99999999999983 0 433.5228474979998 0 427.99999999999983 C0 427.99999999999983 0 10.000000000000002 0 10.000000000000002 Z" style="stroke: rgb(140, 140, 140); stroke-width: 0; stroke-linecap: butt; stroke-linejoin: miter; fill: rgb(252, 252, 252);" vector-effect="non-scaling-stroke"/></g></g></svg>